<svg width="222" height="80" fill="none" xmlns="http://www.w3.org/2000/svg"><path d="M133.54 39.988c.757.472 1.89.847 3.309 1.13a17.47 17.47 0 004.451.47 13.672 13.672 0 004.068-.564c1.149-.36 2.234-.9 3.213-1.6a6.84 6.84 0 002.077-2.538 7.777 7.777 0 00.757-3.385 6.913 6.913 0 00-1.323-4.046c-.852-1.128-2.374-2.066-4.451-2.727l-4.065-1.317c-1.514-.47-2.647-1.036-3.217-1.6a2.761 2.761 0 01-.849-2.065c0-1.128.472-2.066 1.324-2.538.943-.564 2.175-.848 3.875-.848a13.42 13.42 0 015.579 1.128c.357.183.74.31 1.136.378.472 0 .662-.295.662-.942v-1.127a1.399 1.399 0 00-.297-.942 2.205 2.205 0 00-.852-.752 3.67 3.67 0 00-1.228-.47c-.472-.188-1.039-.295-1.608-.472a11.69 11.69 0 00-1.891-.28 7.079 7.079 0 00-1.985-.189c-1.213.006-2.42.163-3.593.47-1.086.33-2.109.838-3.027 1.504a8.295 8.295 0 00-2.077 2.361c-.566.942-.756 1.975-.756 3.2a6.654 6.654 0 001.418 4.132c.947 1.316 2.46 2.257 4.635 2.915l4.154 1.317c1.418.469 2.374.938 2.932 1.505a2.613 2.613 0 01.756 1.974 3.074 3.074 0 01-1.513 2.727c-1.042.658-2.374.942-4.255.942a13.909 13.909 0 01-3.403-.378 12.905 12.905 0 01-3.217-1.033 6.433 6.433 0 01-.756-.295 1.195 1.195 0 00-.567-.095c-.472 0-.662.296-.662.942v1.41c.018.291.082.577.19.848.281.352.635.64 1.039.844l.017.006zM82.734 26.069a16.797 16.797 0 00-3.027-.19c-2.932 0-5.295.753-7.091 2.259-1.796 1.505-2.647 3.48-2.647 5.926 0 2.36.661 4.132 2.077 5.548 1.415 1.417 3.308 2.066 5.768 2.066 3.404 0 6.241-1.316 8.51-3.949.246.583.53 1.148.852 1.691.291.48.64.921 1.038 1.317a1.159 1.159 0 00.852.378c.275-.027.537-.129.757-.296l1.798-1.221c.377-.295.567-.564.567-.847a2.382 2.382 0 00-.19-.659 13.183 13.183 0 01-.947-2.066 9.506 9.506 0 01-.297-2.538v-9.405c0-3.105-.756-5.454-2.374-7.054-1.617-1.6-4.065-2.361-7.563-2.361a17.64 17.64 0 00-4.54.564c-1.242.31-2.446.75-3.593 1.316a1.74 1.74 0 00-.757.567c-.19.186-.19.563-.19 1.033v1.41c0 .564.19.942.57.942.162.006.324-.026.472-.095.19-.094.566-.189 1.041-.375a19.59 19.59 0 013.119-.941 11.77 11.77 0 013.121-.378c2.27 0 3.783.472 4.727 1.32.944.847 1.323 2.443 1.323 4.606v2.066c-1.228-.295-2.266-.469-3.403-.658l.027.024zm3.308 5.094a9.103 9.103 0 01-.296 2.443 4.06 4.06 0 01-.947 1.789 5.776 5.776 0 01-2.742 1.77 8.983 8.983 0 01-3.026.567c-1.324 0-2.374-.377-3.024-1.035-.65-.659-1.041-1.692-1.041-3.01 0-1.412.471-2.539 1.418-3.292.947-.752 2.374-1.127 4.255-1.127.852 0 1.798.091 2.742.186a21.8 21.8 0 012.647.472v1.237h.014zm53.456 17.506c-.89.59-.694 1.476.199 1.381 3.175-.395 10.412-1.284 11.602.393 1.288 1.579-1.389 8.285-2.578 11.343-.398.885.397 1.283 1.29.59 5.341-4.427 6.742-13.81 5.638-15.091-1.089-1.476-10.51-2.565-16.163 1.381l.012.003zm-38.231-9.151c.11.411.303.796.567 1.13.19.186.567.28 1.136.28h2.457c.567 0 .947-.094 1.137-.28.264-.334.457-.719.566-1.13l4.451-18.528 4.537 18.528c.095.564.297.942.567 1.13.19.186.665.28 1.136.28h2.457a2.04 2.04 0 001.137-.28 2.09 2.09 0 00.566-1.13l6.997-22.197c.083-.213.147-.433.19-.658 0-.186.095-.295.095-.469 0-.47-.19-.658-.662-.658h-2.649c-.567 0-.944.094-1.134.295a3.041 3.041 0 00-.567 1.127L119.24 36.24l-4.62-19.387c-.092-.564-.282-.941-.567-1.127-.19-.19-.662-.295-1.134-.295h-2.373c-.567 0-.947.094-1.134.295a3.025 3.025 0 00-.569 1.127l-4.537 18.998-4.82-18.998a3.03 3.03 0 00-.569-1.127c-.187-.19-.567-.295-1.133-.295h-2.837c-.472 0-.662.188-.662.658.047.387.142.766.282 1.13l6.715 22.288-.015.012z" fill="#000"/><path d="M145.747 52.808a89.318 89.318 0 01-34.311 7.004c-16.358 0-32.224-4.427-45.016-11.933-1.09-.69-1.982.493-.991 1.379C77.328 59.91 92.995 66.32 110.445 66.32c12.394 0 26.872-3.837 36.886-11.243 1.484-1.18.101-2.951-1.584-2.27z" fill="#000"/></svg>