<svg width="222" height="80" fill="none" xmlns="http://www.w3.org/2000/svg"><path d="M37.107 24.942a14.788 14.788 0 015.052.846 10.985 10.985 0 014.048 2.534 11.645 11.645 0 012.673 4.222c.641 1.688.963 3.671.964 5.95a18.599 18.599 0 01-.787 5.528 12.085 12.085 0 01-2.377 4.383 11.14 11.14 0 01-3.967 2.892c-1.586.704-3.454 1.056-5.602 1.056H25v-27.41h12.107zm-.433 22.343c.883.002 1.76-.14 2.595-.423a5.733 5.733 0 002.236-1.405 7.036 7.036 0 001.572-2.556c.392-1.048.588-2.328.59-3.839a15.696 15.696 0 00-.413-3.735 7.41 7.41 0 00-1.356-2.86 6.013 6.013 0 00-2.496-1.824c-1.036-.422-2.311-.633-3.825-.633h-4.404v17.275h5.501zm16.195-9.157a9.057 9.057 0 012.107-3.285 9.324 9.324 0 013.318-2.127c1.38-.516 2.847-.77 4.325-.749 1.483-.02 2.957.234 4.344.749a9.282 9.282 0 013.326 2.123 9.014 9.014 0 012.108 3.289c.514 1.385.767 2.85.747 4.324a11.792 11.792 0 01-.747 4.301 9.295 9.295 0 01-2.11 3.275 9.26 9.26 0 01-3.32 2.093c-1.39.502-2.863.75-4.344.73a12.153 12.153 0 01-4.325-.73 9.284 9.284 0 01-3.302-2.093 9.3 9.3 0 01-2.123-3.28 11.792 11.792 0 01-.747-4.302 11.95 11.95 0 01.743-4.318zm5.072 6.642c.143.72.415 1.408.805 2.034a4.25 4.25 0 001.514 1.44 4.693 4.693 0 002.359.538 4.807 4.807 0 002.377-.539 4.198 4.198 0 001.534-1.439 6.136 6.136 0 00.805-2.034 11.671 11.671 0 000-4.665 5.936 5.936 0 00-.805-2.034 4.44 4.44 0 00-1.534-1.44 4.683 4.683 0 00-2.377-.556 4.573 4.573 0 00-2.359.557 4.485 4.485 0 00-1.514 1.439 5.896 5.896 0 00-.805 2.034 11.658 11.658 0 000 4.665zm27.752-8.694a3.999 3.999 0 00-2.24.59 4.765 4.765 0 00-1.474 1.535 6.55 6.55 0 00-.805 2.074 10.569 10.569 0 000 4.435c.144.707.403 1.387.767 2.014.348.6.839 1.109 1.431 1.484.66.4 1.426.6 2.202.576 1.342 0 2.37-.365 3.086-1.095.715-.73 1.167-1.709 1.354-2.936h5.387c-.37 2.635-1.418 4.644-3.146 6.026-1.729 1.383-3.943 2.074-6.643 2.074a11.361 11.361 0 01-4.186-.749 9.29 9.29 0 01-3.243-2.091 9.478 9.478 0 01-2.083-3.206 10.897 10.897 0 01-.747-4.089c-.013-1.454.22-2.9.689-4.28a9.559 9.559 0 012.022-3.416 9.247 9.247 0 013.263-2.246 11.335 11.335 0 014.404-.807 13.06 13.06 0 013.478.46 9.415 9.415 0 012.987 1.402 7.289 7.289 0 012.221 2.48c.535.982.831 2.071.865 3.183h-5.469c-.362-2.28-1.736-3.42-4.12-3.418zm25.825 16.276v-2.767h-.119a6.22 6.22 0 01-2.751 2.494 8.272 8.272 0 01-3.46.769c-1.494 0-2.719-.192-3.676-.576-.89-.336-1.67-.9-2.26-1.632a6.331 6.331 0 01-1.16-2.573 15.7 15.7 0 01-.334-3.358V32.505h5.584V43.71c0 1.638.262 2.86.785 3.666s1.454 1.209 2.792 1.209c1.52 0 2.62-.442 3.301-1.325.68-.883 1.021-2.335 1.022-4.356v-10.4h5.582v19.854l-5.306-.006zm14.071-6.756c.32.616.785 1.15 1.357 1.555a5.912 5.912 0 001.985.882 9.56 9.56 0 002.359.288 12.43 12.43 0 001.767-.134 6.163 6.163 0 001.769-.52 3.843 3.843 0 001.377-1.055 2.6 2.6 0 00.549-1.708 2.352 2.352 0 00-.169-.977 2.41 2.41 0 00-.557-.827 5.812 5.812 0 00-1.906-1.15 19.505 19.505 0 00-2.673-.808 73.613 73.613 0 01-3.019-.767 27.04 27.04 0 01-3.066-.941 10.496 10.496 0 01-2.681-1.447 6.817 6.817 0 01-1.908-2.208c-.485-.883-.727-1.952-.727-3.206a7.054 7.054 0 01.924-3.666 8.258 8.258 0 012.415-2.59 10.673 10.673 0 013.382-1.536 14.726 14.726 0 013.772-.5 18.37 18.37 0 014.227.48c1.288.295 2.508.822 3.597 1.555a7.963 7.963 0 012.496 2.752c.615 1.114.923 2.465.923 4.052h-5.976a4.762 4.762 0 00-.529-2.035 3.438 3.438 0 00-1.208-1.268 5.182 5.182 0 00-1.708-.652c-.693-.134-1.398-.2-2.104-.197a7.41 7.41 0 00-1.493.153 4.048 4.048 0 00-1.357.537c-.4.248-.743.575-1.006.96a2.534 2.534 0 00-.403 1.46c-.021.455.087.907.314 1.305.209.332.622.638 1.238.92.825.353 1.679.636 2.554.845 1.088.282 2.51.64 4.265 1.075.526.103 1.254.288 2.182.557.983.294 1.917.727 2.772 1.285a8.284 8.284 0 012.379 2.36c.671.986 1.006 2.247 1.006 3.781a8.19 8.19 0 01-.746 3.493 7.609 7.609 0 01-2.215 2.784 10.758 10.758 0 01-3.655 1.822c-1.641.46-3.344.68-5.052.653a18.103 18.103 0 01-4.5-.557 11.456 11.456 0 01-3.853-1.745 8.691 8.691 0 01-2.653-3.033c-.653-1.228-.968-2.687-.944-4.376h5.976c-.023.813.156 1.62.523 2.349zm19.575-16.163v-4.491h5.582v4.491h-5.582zm5.582 3.071v19.854h-5.582V32.504h5.582zm22.82 21.306a6.688 6.688 0 01-1.435 2.86c-.736.884-1.797 1.632-3.185 2.245-1.387.614-3.248.921-5.581.922a13.372 13.372 0 01-3.047-.363 9.844 9.844 0 01-2.83-1.132 6.91 6.91 0 01-2.122-1.978 5.64 5.64 0 01-.964-2.9h5.543c.262 1.024.773 1.734 1.534 2.131.814.408 1.718.61 2.633.59 1.571 0 2.718-.459 3.44-1.376.722-.917 1.068-2.082 1.04-3.493v-2.61h-.078a5.476 5.476 0 01-2.575 2.321 8.502 8.502 0 01-3.518.749c-1.519 0-2.829-.262-3.931-.786a7.407 7.407 0 01-2.711-2.15 8.865 8.865 0 01-1.556-3.187 14.705 14.705 0 01-.491-3.859 12.162 12.162 0 01.569-3.703 9.635 9.635 0 011.671-3.145 8.06 8.06 0 012.733-2.163 8.38 8.38 0 013.754-.806 8.036 8.036 0 013.519.73c1.009.487 1.853 1.306 2.534 2.457h.078v-2.66h5.308v18.58a13.113 13.113 0 01-.332 2.726zm-7.649-6.602a4.31 4.31 0 001.494-1.229c.4-.525.701-1.116.885-1.745.199-.668.298-1.36.294-2.055.004-.78-.075-1.559-.235-2.323a5.739 5.739 0 00-.785-1.938 4.076 4.076 0 00-1.456-1.345 4.685 4.685 0 00-2.28-.497 4.17 4.17 0 00-2.023.46 4.213 4.213 0 00-1.409 1.248 5.244 5.244 0 00-.825 1.803 8.834 8.834 0 00-.262 2.134c0 .716.073 1.43.218 2.131.13.672.383 1.316.746 1.901a4.332 4.332 0 001.395 1.376 4.036 4.036 0 002.162.537 4.528 4.528 0 002.083-.458h-.002zm16.979-14.748v2.795h.12a6.49 6.49 0 012.821-2.542 8.44 8.44 0 013.547-.796c1.531 0 2.787.2 3.768.597.91.35 1.709.926 2.317 1.668.591.772.996 1.66 1.188 2.602.238 1.118.353 2.257.343 3.398v12.345h-5.722V41.195c0-1.655-.269-2.89-.807-3.707-.538-.817-1.491-1.224-2.86-1.223-1.56 0-2.688.447-3.386 1.34-.697.893-1.047 2.362-1.048 4.407v10.52h-5.722V32.455l5.441.006z" fill="#000"/></svg>