<svg width="222" height="80" fill="none" xmlns="http://www.w3.org/2000/svg"><path d="M15.469 50.63a15.36 15.36 0 01-5.905-1.1 15.09 15.09 0 01-4.995-3.273 14.242 14.242 0 01-3.412-4.796A13.973 13.973 0 010 35.727a13.952 13.952 0 011.154-5.733 14.22 14.22 0 013.414-4.796 15.046 15.046 0 014.984-3.32 15.32 15.32 0 015.916-1.136 14.85 14.85 0 015.64 1.035 14.597 14.597 0 014.795 3.087l-2.943 2.918a10.691 10.691 0 00-7.502-2.903 10.64 10.64 0 00-4.231.813 10.445 10.445 0 00-3.534 2.417 10.535 10.535 0 00-2.39 3.517 10.348 10.348 0 00-.789 4.152 10.32 10.32 0 00.807 4.099 10.487 10.487 0 002.372 3.469 11.198 11.198 0 007.688 3.16 11.21 11.21 0 007.761-2.982 8.487 8.487 0 002.26-5.023H15.5v-4.137h14.02c.135.83.19 1.67.165 2.511a12.691 12.691 0 01-.814 5.127 12.908 12.908 0 01-2.807 4.403 14.047 14.047 0 01-4.844 3.213 14.303 14.303 0 01-5.762 1l.01.012zm32.578-2.743a10.224 10.224 0 01-6.988 2.745c-2.604 0-5.107-.983-6.988-2.745a9.198 9.198 0 01-2.168-3.137 9.03 9.03 0 01-.695-3.725 9.046 9.046 0 01.696-3.725 9.215 9.215 0 012.167-3.137 10.23 10.23 0 016.988-2.744c2.604 0 5.107.983 6.988 2.744a9.2 9.2 0 012.164 3.137 9.03 9.03 0 01.691 3.725 9.037 9.037 0 01-.698 3.726 9.207 9.207 0 01-2.172 3.136h.015zm-10.892-2.7c.5.522 1.105.938 1.777 1.223a5.457 5.457 0 004.254 0 5.356 5.356 0 001.777-1.223 5.743 5.743 0 001.254-1.918 5.645 5.645 0 00.395-2.244 5.685 5.685 0 00-.394-2.255 5.783 5.783 0 00-1.255-1.93 5.434 5.434 0 00-1.789-1.21 5.534 5.534 0 00-4.26 0 5.432 5.432 0 00-1.79 1.21 5.714 5.714 0 00-1.262 1.928 5.616 5.616 0 00-.389 2.257 5.625 5.625 0 00.402 2.246 5.722 5.722 0 001.265 1.916h.015zm32.399 2.7a10.238 10.238 0 01-6.993 2.745c-2.606 0-5.11-.983-6.993-2.745a9.22 9.22 0 01-2.163-3.138 9.051 9.051 0 01-.693-3.724 9.032 9.032 0 01.691-3.725 9.2 9.2 0 012.165-3.137 10.226 10.226 0 016.993-2.75c2.606 0 5.111.985 6.993 2.75a9.22 9.22 0 012.162 3.138 9.05 9.05 0 01.693 3.724 9.067 9.067 0 01-.694 3.723 9.238 9.238 0 01-2.161 3.14zm-10.9-2.7a5.363 5.363 0 001.778 1.223 5.462 5.462 0 004.257 0 5.363 5.363 0 001.779-1.223 5.766 5.766 0 001.252-1.919 5.665 5.665 0 00.398-2.243 5.698 5.698 0 00-.396-2.255 5.795 5.795 0 00-1.254-1.93 5.44 5.44 0 00-1.79-1.21 5.538 5.538 0 00-4.263 0 5.437 5.437 0 00-1.79 1.21 5.732 5.732 0 00-1.26 1.928 5.634 5.634 0 00-.39 2.257c-.02.767.116 1.53.401 2.245a5.75 5.75 0 001.26 1.917h.018zm25.024 14.066a8.719 8.719 0 01-5.494-1.708 9.961 9.961 0 01-3.207-3.979l3.766-1.53a6.162 6.162 0 001.867 2.404 4.727 4.727 0 003.081 1.02 5.05 5.05 0 002.088-.316 4.96 4.96 0 001.764-1.14 5.787 5.787 0 001.376-4.195v-1.39h-.154a6.28 6.28 0 01-2.317 1.686 6.413 6.413 0 01-2.841.495 9.128 9.128 0 01-3.604-.727 8.955 8.955 0 01-3-2.084 9.268 9.268 0 01-2.122-3.097 9.102 9.102 0 01-.703-3.665 9.194 9.194 0 01.7-3.692 9.359 9.359 0 012.124-3.127 8.986 8.986 0 013-2.09 9.159 9.159 0 013.605-.736 7.286 7.286 0 013.034.666c.819.35 1.55.873 2.14 1.53h.156v-1.53h4.09v17.196a9.843 9.843 0 01-.52 4.02 10.004 10.004 0 01-2.101 3.492 9.273 9.273 0 01-3.103 1.914 9.43 9.43 0 01-3.62.583h-.005zm.3-12.396a4.927 4.927 0 002.049-.403 4.83 4.83 0 001.683-1.212 5.897 5.897 0 001.497-4.137 6.037 6.037 0 00-1.497-4.215 4.771 4.771 0 00-1.68-1.217 4.87 4.87 0 00-2.051-.398 5.234 5.234 0 00-2.112.403 5.134 5.134 0 00-1.758 1.212 5.83 5.83 0 00-1.65 4.18 5.761 5.761 0 001.65 4.137 5.134 5.134 0 001.754 1.232 5.233 5.233 0 002.116.418zm16.326 3.195H95.99V21.827h4.314v28.225zm11.811.58a9.557 9.557 0 01-3.761-.674 9.388 9.388 0 01-3.172-2.088 9.388 9.388 0 01-2.111-3.145 9.22 9.22 0 01-.682-3.703 9.292 9.292 0 01.627-3.722 9.465 9.465 0 012.064-3.188 8.867 8.867 0 013.002-2.025 9.044 9.044 0 013.581-.672 8.516 8.516 0 013.302.63 7.614 7.614 0 012.527 1.615 11.23 11.23 0 011.648 1.95c.387.599.713 1.233.976 1.893l.447 1.1-13.206 5.308a4.88 4.88 0 001.915 2.176c.848.52 1.838.775 2.838.733a5.748 5.748 0 002.778-.71 5.596 5.596 0 002.062-1.955l3.302 2.177a10.972 10.972 0 01-3.171 2.944 9.135 9.135 0 01-4.971 1.354l.005.003zm-5.51-9.898l8.776-3.565a2.946 2.946 0 00-1.366-1.472 4.489 4.489 0 00-2.262-.562 5.138 5.138 0 00-3.548 1.53 5.127 5.127 0 00-1.265 1.86 5.024 5.024 0 00-.335 2.209zm36.515 9.896a13.851 13.851 0 01-5.354-.973 13.629 13.629 0 01-4.534-2.952 13.255 13.255 0 01-2.989-4.449 13.027 13.027 0 01-.965-5.24 13.042 13.042 0 01.966-5.239 13.275 13.275 0 012.988-4.449 13.616 13.616 0 014.53-2.948 13.847 13.847 0 015.348-.973c1.855-.055 3.7.3 5.395 1.04a12.308 12.308 0 014.396 3.23l-2.38 2.261a8.971 8.971 0 00-3.294-2.519 9.156 9.156 0 00-4.101-.789 10.297 10.297 0 00-3.961.704 10.117 10.117 0 00-3.365 2.162c-1 .985-1.781 2.162-2.294 3.456a9.87 9.87 0 00-.689 4.065 9.905 9.905 0 00.687 4.072 10.07 10.07 0 002.296 3.463 10.13 10.13 0 003.374 2.172c1.263.494 2.615.734 3.975.704a10.69 10.69 0 004.565-.963 10.467 10.467 0 003.687-2.805l2.375 2.321a12.83 12.83 0 01-4.58 3.379 14.28 14.28 0 01-6.076 1.255v.016zm13.617-.583h3.413V23.969h-3.413v26.078zm8.99-15.691a9.669 9.669 0 016.736-2.716c2.524 0 4.946.977 6.737 2.716a9.415 9.415 0 012.012 3.133 9.24 9.24 0 01.625 3.65 9.24 9.24 0 01-.625 3.648 9.417 9.417 0 01-2.012 3.133 9.664 9.664 0 01-6.737 2.719 9.663 9.663 0 01-6.736-2.719 9.447 9.447 0 01-2.009-3.134 9.29 9.29 0 01-.628-3.648 9.29 9.29 0 01.628-3.648 9.446 9.446 0 012.009-3.134zm2.545 11.462c.538.556 1.186 1 1.906 1.302a5.864 5.864 0 004.553 0 5.762 5.762 0 001.906-1.302 6.415 6.415 0 001.369-2.166 6.32 6.32 0 00.403-2.516 6.325 6.325 0 00-.403-2.517 6.44 6.44 0 00-1.369-2.168 5.762 5.762 0 00-1.906-1.301 5.873 5.873 0 00-4.553 0 5.762 5.762 0 00-1.906 1.301 6.426 6.426 0 00-1.361 2.17 6.334 6.334 0 00-.401 2.515 6.322 6.322 0 00.41 2.508 6.42 6.42 0 001.37 2.159l-.018.015zm32.505 4.232h-3.3v-2.472h-.102a6.34 6.34 0 01-2.409 2.228 6.914 6.914 0 01-3.386.892 6.589 6.589 0 01-2.829-.44 6.472 6.472 0 01-2.356-1.595 7.97 7.97 0 01-1.761-5.458V32.221h3.412V42.59c0 3.32 1.501 4.983 4.504 4.988a4.308 4.308 0 001.936-.398 4.207 4.207 0 001.538-1.217 6.045 6.045 0 001.333-3.86V32.22h3.42v17.834-.005zm11.594.58a8.151 8.151 0 01-3.358-.711 7.987 7.987 0 01-2.743-2.023 9.563 9.563 0 01-2.567-6.761 9.572 9.572 0 012.567-6.77 8.019 8.019 0 012.746-2.016 8.175 8.175 0 013.355-.71 7.86 7.86 0 013.733.877 6.204 6.204 0 012.476 2.176h.146l-.146-2.472v-8.249H222V50.05h-3.3v-2.472h-.154a6.215 6.215 0 01-2.478 2.178 7.814 7.814 0 01-3.697.874zm.57-3.053a5.57 5.57 0 002.245-.44 5.442 5.442 0 001.863-1.303 6.453 6.453 0 001.651-4.7 6.453 6.453 0 00-1.651-4.7 5.562 5.562 0 00-1.87-1.318 5.682 5.682 0 00-4.512 0 5.582 5.582 0 00-1.87 1.319 6.41 6.41 0 00-1.305 2.18 6.305 6.305 0 00-.346 2.502c-.055.849.062 1.7.346 2.504a6.397 6.397 0 001.305 2.18 5.412 5.412 0 001.874 1.331 5.526 5.526 0 002.27.445z" fill="#000"/></svg>