<svg width="222" height="80" fill="none" xmlns="http://www.w3.org/2000/svg"><path fill-rule="evenodd" clip-rule="evenodd" d="M127.532 26.429a13.162 13.162 0 00-3.752-.543c-7.434 0-13.464 6.19-13.464 13.828 0 7.638 6.03 13.826 13.464 13.826s13.465-6.19 13.465-13.826a14.223 14.223 0 00-.463-3.608 6.694 6.694 0 01-2.104 2.112 6.788 6.788 0 01-2.824 1c0 .17.015.343.015.516 0 4.592-3.624 8.317-8.099 8.317s-8.099-3.725-8.099-8.317c0-4.593 3.627-8.32 8.099-8.32.217 0 .431 0 .64.026a6.948 6.948 0 011.001-2.846 7.03 7.03 0 012.121-2.165z" fill="#000"/><path d="M131.194 37.724c2.904 0 5.258-2.418 5.258-5.401 0-2.984-2.354-5.402-5.258-5.402s-5.258 2.418-5.258 5.402c0 2.983 2.354 5.401 5.258 5.401z" fill="#000"/><mask id="path-3-outside-1_1490_1757" maskUnits="userSpaceOnUse" x="5" y="26.257" width="211" height="27" fill="#000"><path fill="#fff" d="M5 26.257h211v27H5z"/><path fill-rule="evenodd" clip-rule="evenodd" d="M10.566 27.558v10.176h12.24V27.558h4.56V51.73h-4.56V41.52h-12.24v10.21H6V27.558h4.566zm27.047 0l5.706 8.081 5.773-8.081h5.421L45.6 39.756v11.975h-4.56V39.722l-8.964-12.164h5.537zm31.502 0c2.28-.042 4.534.487 6.552 1.54a11.03 11.03 0 014.457 4.324 12.446 12.446 0 011.587 6.264c.043 2.2-.508 4.37-1.597 6.29a10.82 10.82 0 01-4.531 4.249c-1.958 1.004-4.204 1.506-6.737 1.506h-9.61V27.558h9.88zm-.47 20.52c2.52 0 4.542-.775 6.068-2.326 1.526-1.551 2.288-3.581 2.287-6.09 0-2.6-.768-4.658-2.304-6.177-1.536-1.518-3.604-2.274-6.204-2.268h-4.694v16.871l4.846-.01zm27.783-20.52c2.216 0 4.023.628 5.421 1.886 1.398 1.257 2.096 2.895 2.094 4.914a6.242 6.242 0 01-1.039 3.59 6.89 6.89 0 01-3.08 2.413 6.895 6.895 0 012.008 1.705c.586.716 1.312 1.922 2.178 3.618 1.44 2.923 2.508 4.942 3.203 6.056h-5.081c-.349-.53-.823-1.379-1.419-2.543-1.306-2.573-2.263-4.307-2.87-5.202a6.957 6.957 0 00-1.755-1.902 3.42 3.42 0 00-1.941-.563H92.49v10.21h-4.559V27.558h8.496zm-1.03 10.313c1.193 0 2.13-.306 2.81-.919.68-.612 1.02-1.449 1.022-2.51 0-1.105-.338-1.933-1.013-2.482-.675-.549-1.638-.823-2.888-.82h-2.836v6.73h2.905zm59.466-10.613c2.995.02 5.948.7 8.644 1.99v4.274c-2.862-1.49-5.676-2.233-8.442-2.232a9.73 9.73 0 00-4.593 1.055 7.483 7.483 0 00-3.114 3.036 8.931 8.931 0 00-1.107 4.422c0 2.467.803 4.454 2.408 5.961 1.605 1.507 3.717 2.26 6.337 2.259a11.05 11.05 0 002.07-.19 13.748 13.748 0 002.355-.731v-4.023h-3.9v-3.64h8.459v9.968a13.545 13.545 0 01-4.189 1.949 18.27 18.27 0 01-5.073.701 14.428 14.428 0 01-6.762-1.576 11.63 11.63 0 01-4.728-4.412 12.098 12.098 0 01-1.695-6.335 12.275 12.275 0 011.712-6.42 11.757 11.757 0 014.778-4.465 14.61 14.61 0 016.84-1.59zm31.199.312v3.654h-10.686v6.352h10.23v3.654h-10.23v6.87H186.3v3.655h-15.482V27.558l15.245.012zm10.467 0l14.013 16.871V27.558H215V51.73h-3.918l-14.096-17.15v17.15h-4.462V27.558l4.006.012z"/></mask><path fill-rule="evenodd" clip-rule="evenodd" d="M10.566 27.558v10.176h12.24V27.558h4.56V51.73h-4.56V41.52h-12.24v10.21H6V27.558h4.566zm27.047 0l5.706 8.081 5.773-8.081h5.421L45.6 39.756v11.975h-4.56V39.722l-8.964-12.164h5.537zm31.502 0c2.28-.042 4.534.487 6.552 1.54a11.03 11.03 0 014.457 4.324 12.446 12.446 0 011.587 6.264c.043 2.2-.508 4.37-1.597 6.29a10.82 10.82 0 01-4.531 4.249c-1.958 1.004-4.204 1.506-6.737 1.506h-9.61V27.558h9.88zm-.47 20.52c2.52 0 4.542-.775 6.068-2.326 1.526-1.551 2.288-3.581 2.287-6.09 0-2.6-.768-4.658-2.304-6.177-1.536-1.518-3.604-2.274-6.204-2.268h-4.694v16.871l4.846-.01zm27.783-20.52c2.216 0 4.023.628 5.421 1.886 1.398 1.257 2.096 2.895 2.094 4.914a6.242 6.242 0 01-1.039 3.59 6.89 6.89 0 01-3.08 2.413 6.895 6.895 0 012.008 1.705c.586.716 1.312 1.922 2.178 3.618 1.44 2.923 2.508 4.942 3.203 6.056h-5.081c-.349-.53-.823-1.379-1.419-2.543-1.306-2.573-2.263-4.307-2.87-5.202a6.957 6.957 0 00-1.755-1.902 3.42 3.42 0 00-1.941-.563H92.49v10.21h-4.559V27.558h8.496zm-1.03 10.313c1.193 0 2.13-.306 2.81-.919.68-.612 1.02-1.449 1.022-2.51 0-1.105-.338-1.933-1.013-2.482-.675-.549-1.638-.823-2.888-.82h-2.836v6.73h2.905zm59.466-10.613c2.995.02 5.948.7 8.644 1.99v4.274c-2.862-1.49-5.676-2.233-8.442-2.232a9.73 9.73 0 00-4.593 1.055 7.483 7.483 0 00-3.114 3.036 8.931 8.931 0 00-1.107 4.422c0 2.467.803 4.454 2.408 5.961 1.605 1.507 3.717 2.26 6.337 2.259a11.05 11.05 0 002.07-.19 13.748 13.748 0 002.355-.731v-4.023h-3.9v-3.64h8.459v9.968a13.545 13.545 0 01-4.189 1.949 18.27 18.27 0 01-5.073.701 14.428 14.428 0 01-6.762-1.576 11.63 11.63 0 01-4.728-4.412 12.098 12.098 0 01-1.695-6.335 12.275 12.275 0 011.712-6.42 11.757 11.757 0 014.778-4.465 14.61 14.61 0 016.84-1.59zm31.199.312v3.654h-10.686v6.352h10.23v3.654h-10.23v6.87H186.3v3.655h-15.482V27.558l15.245.012zm10.467 0l14.013 16.871V27.558H215V51.73h-3.918l-14.096-17.15v17.15h-4.462V27.558l4.006.012z" fill="#000"/><path clip-rule="evenodd" d="M10.566 27.558v10.176h12.24V27.558h4.56V51.73h-4.56V41.52h-12.24v10.21H6V27.558h4.566zm27.047 0l5.706 8.081 5.773-8.081h5.421L45.6 39.756v11.975h-4.56V39.722l-8.964-12.164h5.537zm31.502 0c2.28-.042 4.534.487 6.552 1.54a11.03 11.03 0 014.457 4.324 12.446 12.446 0 011.587 6.264c.043 2.2-.508 4.37-1.597 6.29a10.82 10.82 0 01-4.531 4.249c-1.958 1.004-4.204 1.506-6.737 1.506h-9.61V27.558h9.88zm-.47 20.52c2.52 0 4.542-.775 6.068-2.326 1.526-1.551 2.288-3.581 2.287-6.09 0-2.6-.768-4.658-2.304-6.177-1.536-1.518-3.604-2.274-6.204-2.268h-4.694v16.871l4.846-.01zm27.783-20.52c2.216 0 4.023.628 5.421 1.886 1.398 1.257 2.096 2.895 2.094 4.914a6.242 6.242 0 01-1.039 3.59 6.89 6.89 0 01-3.08 2.413 6.895 6.895 0 012.008 1.705c.586.716 1.312 1.922 2.178 3.618 1.44 2.923 2.508 4.942 3.203 6.056h-5.081c-.349-.53-.823-1.379-1.419-2.543-1.306-2.573-2.263-4.307-2.87-5.202a6.957 6.957 0 00-1.755-1.902 3.42 3.42 0 00-1.941-.563H92.49v10.21h-4.559V27.558h8.496zm-1.03 10.313c1.193 0 2.13-.306 2.81-.919.68-.612 1.02-1.449 1.022-2.51 0-1.105-.338-1.933-1.013-2.482-.675-.549-1.638-.823-2.888-.82h-2.836v6.73h2.905zm59.466-10.613c2.995.02 5.948.7 8.644 1.99v4.274c-2.862-1.49-5.676-2.233-8.442-2.232a9.73 9.73 0 00-4.593 1.055 7.483 7.483 0 00-3.114 3.036 8.931 8.931 0 00-1.107 4.422c0 2.467.803 4.454 2.408 5.961 1.605 1.507 3.717 2.26 6.337 2.259a11.05 11.05 0 002.07-.19 13.748 13.748 0 002.355-.731v-4.023h-3.9v-3.64h8.459v9.968a13.545 13.545 0 01-4.189 1.949 18.27 18.27 0 01-5.073.701 14.428 14.428 0 01-6.762-1.576 11.63 11.63 0 01-4.728-4.412 12.098 12.098 0 01-1.695-6.335 12.275 12.275 0 011.712-6.42 11.757 11.757 0 014.778-4.465 14.61 14.61 0 016.84-1.59zm31.199.312v3.654h-10.686v6.352h10.23v3.654h-10.23v6.87H186.3v3.655h-15.482V27.558l15.245.012zm10.467 0l14.013 16.871V27.558H215V51.73h-3.918l-14.096-17.15v17.15h-4.462V27.558l4.006.012z" stroke="#000" stroke-opacity=".1" stroke-width=".6" mask="url(#path-3-outside-1_1490_1757)"/></svg>