<svg width="222" height="80" fill="none" xmlns="http://www.w3.org/2000/svg"><path d="M55.169 52.364h-4.581v-17.51a50.38 50.38 0 01.2-5.19 9.382 9.382 0 01-.802 2.496l-8.389 20.367h-3.196l-8.403-20.163c-.2-.575-.4-1.538-.802-2.714.2 1.154.2 2.883.2 5.386v17.532H25V25.445h6.592l7.397 18.076a38.38 38.38 0 011.203 3.078c.306-1.12.708-2.214 1.203-3.268l7.576-18.076h6.394l-.196 27.11zm8.588-23.463a2.634 2.634 0 01-1.089-.17 2.587 2.587 0 01-.916-.6 2.074 2.074 0 01-.616-.767 2.03 2.03 0 01-.186-.96 1.825 1.825 0 01.158-.972c.141-.304.364-.566.644-.757a3.62 3.62 0 012.005-.77c.37-.02.742.039 1.088.171.346.133.658.337.916.6a2.063 2.063 0 01.802 1.729c.037.331-.017.667-.159.971a1.866 1.866 0 01-.643.756c-.258.262-.57.466-.916.599a2.634 2.634 0 01-1.088.17zm2.205 23.463h-4.595V32.943h4.595v19.42zm20.563-.767c-1.604.96-3.595 1.359-5.793 1.359-2.995 0-5.393-.96-7.192-2.693-1.798-1.733-2.774-4.036-2.774-6.923 0-3.269 1.002-5.771 2.995-7.695 1.993-1.923 4.596-2.883 7.99-2.883 1.647.002 3.278.328 4.794.96v4.027a8.129 8.129 0 00-4.397-1.538c-2.005 0-3.597.575-4.794 1.923a7.029 7.029 0 00-1.805 4.978c0 1.924.602 3.653 1.805 4.807a6.41 6.41 0 002.12 1.315c.79.297 1.63.438 2.475.414a7.199 7.199 0 004.596-1.729v3.678h-.02zm16.18-14.417a4.39 4.39 0 00-2.394-.573c-1.388 0-2.394.573-3.399 1.727-1.004 1.154-1.385 2.717-1.385 4.807v9.226h-4.595V32.934h4.595v4.038a7.708 7.708 0 012.005-3.268 4.641 4.641 0 013.194-1.154 4.138 4.138 0 011.804.392l.175 4.238zm12.187 15.777c-3.194 0-5.594-.96-7.396-2.693-1.803-1.733-2.773-4.232-2.773-7.113 0-3.269 1.002-5.771 2.995-7.695 1.993-1.923 4.596-2.714 7.789-2.714 3.194 0 5.595.958 7.397 2.714 1.802 1.757 2.574 4.218 2.574 7.487a10.681 10.681 0 01-2.773 7.498 12.481 12.481 0 01-7.819 2.516h.006zm.201-16.922c-1.797 0-3.194.577-4.193 1.73-1.002 1.154-1.604 2.883-1.604 4.977 0 2.095.602 3.653 1.604 4.808 1.003 1.154 2.394 1.729 4.193 1.729 1.798 0 3.196-.575 4.194-1.73.998-1.154 1.385-2.693 1.385-4.977 0-2.114-.401-3.848-1.385-4.98a5.815 5.815 0 00-1.939-1.183 5.897 5.897 0 00-2.255-.356v-.018zm13.585 15.754v-4.042c1.804 1.154 3.597 1.924 5.594 1.924 2.795 0 4.192-.77 4.192-2.308a2.703 2.703 0 00-.401-1.155 2.001 2.001 0 00-1.002-.77 9.826 9.826 0 00-1.388-.572l-1.804-.575a25.975 25.975 0 01-2.206-.96 11.263 11.263 0 01-1.604-1.154 4.143 4.143 0 01-1.002-1.54 5.508 5.508 0 01-.401-1.923 5.177 5.177 0 01.601-2.499 3.852 3.852 0 011.805-1.727c.802-.575 1.604-.77 2.606-1.154a15.882 15.882 0 012.996-.393 13.51 13.51 0 014.992.77v3.85a8.182 8.182 0 00-4.794-1.357 4.013 4.013 0 00-1.604.196c-.401.196-.802.196-1.203.392-.356.15-.642.425-.802.77a1.707 1.707 0 00-.2.96c-.03.395.038.791.2 1.154.16.345.446.62.802.77.447.225.911.417 1.388.573.601.196 1.002.392 1.804.575.761.4 1.562.722 2.39.96.802.196 1.203.769 1.805 1.154.447.476.85.991 1.203 1.539a6.64 6.64 0 01.401 2.114c0 .958-.201 1.923-.802 2.496a5.063 5.063 0 01-1.805 1.747c-.892.455-1.819.84-2.773 1.154a13.241 13.241 0 01-8.988-.97zm27.772 1.168c-3.193 0-5.593-.96-7.396-2.693-1.802-1.733-2.773-4.232-2.773-7.113 0-3.269 1.003-5.771 2.996-7.695 1.993-1.923 4.595-2.714 7.789-2.714s5.594.958 7.396 2.714c1.803 1.757 2.607 4.232 2.607 7.5a10.683 10.683 0 01-2.775 7.499 12.903 12.903 0 01-7.855 2.502h.022-.011zm.201-16.922c-1.796 0-3.194.577-4.192 1.73-1.003 1.154-1.604 2.883-1.604 4.977 0 2.095.601 3.653 1.604 4.808 1.002 1.154 2.406 1.729 4.192 1.729s3.196-.575 4.195-1.73c.998-1.154 1.385-2.693 1.385-4.977 0-2.114-.401-3.848-1.385-4.98a5.807 5.807 0 00-1.943-1.203 5.892 5.892 0 00-2.268-.367l.016.013zm26.151-8.666a4.143 4.143 0 00-2.196-.576c-2.205 0-3.408 1.155-3.408 3.653v2.687h4.595v3.463h-4.595v15.972h-4.578V36.596h-3.396v-3.463h3.396v-3.077c0-2.112.602-3.651 2.005-4.806a8.68 8.68 0 013.726-1.609 8.764 8.764 0 014.063.251v3.463h.386l.002.014zm13.19 24.805c-.802.382-2.001.573-3.597.575-3.994 0-5.792-1.73-5.792-5.386V36.406h-3.409v-3.463h3.409v-4.426l4.595-1.154v5.77h4.794v3.463h-4.794v9.636a4.227 4.227 0 00.602 2.499c.401.573 1.203.77 2.195.77a3.459 3.459 0 002.005-.6v3.269l-.008.004z" fill="#000"/></svg>