<svg width="222" height="80" fill="none" xmlns="http://www.w3.org/2000/svg"><path d="M96.91 44.362h13.157l-6.953-11.105-12.763 20.076h-5.819l15.526-24.114a3.66 3.66 0 011.328-1.158 3.687 3.687 0 011.719-.407 3.627 3.627 0 011.683.395c.52.266.967.653 1.303 1.128l15.584 24.156h-5.819l-2.74-4.484h-13.29l-2.915-4.487zm60.333 4.487V27.89h-4.93v23a2.397 2.397 0 00.716 1.705 2.526 2.526 0 001.8.73h22.476l2.903-4.485-22.965.01zm-81.54-3.757c1.15.019 2.29-.19 3.358-.614a8.67 8.67 0 002.858-1.854 8.6 8.6 0 001.915-2.806 8.543 8.543 0 00-1.915-9.451 8.668 8.668 0 00-2.858-1.854 8.718 8.718 0 00-3.358-.614H54.14v25.434h4.928V32.384h16.317a4.167 4.167 0 012.873 1.24 4.106 4.106 0 011.182 2.88c0 1.077-.425 2.11-1.182 2.88a4.167 4.167 0 01-2.873 1.242l-13.894-.019 14.711 12.726h7.16l-9.9-8.241h2.242zm-51.891 8.241a12.86 12.86 0 01-9.06-3.724A12.67 12.67 0 0111 40.616a12.67 12.67 0 013.752-8.992 12.86 12.86 0 019.06-3.725h14.897a12.86 12.86 0 019.06 3.725 12.67 12.67 0 013.752 8.992 12.67 12.67 0 01-3.753 8.993 12.86 12.86 0 01-9.059 3.724H23.812zm14.562-4.484c2.2 0 4.309-.868 5.864-2.411a8.202 8.202 0 002.43-5.822 8.202 8.202 0 00-2.43-5.82 8.325 8.325 0 00-5.864-2.412H24.14c-2.2 0-4.31.867-5.865 2.411a8.202 8.202 0 00-2.429 5.821 8.2 8.2 0 002.43 5.822 8.325 8.325 0 005.864 2.41h14.234zm93.59 4.484c-3.398 0-6.657-1.34-9.06-3.724a12.672 12.672 0 01-3.752-8.993c0-3.372 1.35-6.607 3.752-8.992a12.862 12.862 0 019.06-3.725h17.69l-2.884 4.485h-14.478c-2.2 0-4.309.867-5.865 2.411a8.203 8.203 0 00-2.429 5.821c0 2.184.874 4.278 2.429 5.822a8.327 8.327 0 005.865 2.41h17.772l-2.905 4.485h-15.195zm60.271-4.484a8.328 8.328 0 01-5.001-1.666 8.227 8.227 0 01-2.974-4.323h21.064l2.905-4.487h-23.976a8.244 8.244 0 012.978-4.319 8.349 8.349 0 014.997-1.67h14.46l2.926-4.485h-17.712c-3.398 0-6.657 1.34-9.059 3.725a12.669 12.669 0 00-3.753 8.992 12.67 12.67 0 003.753 8.993 12.858 12.858 0 009.059 3.724h15.195L210 48.85h-17.765z" fill="#000"/></svg>