<svg width="222" height="80" fill="none" xmlns="http://www.w3.org/2000/svg"><path d="M86.711 39.597c-.329.229-.488.572-.488 1.046-.014.245.043.49.165.703.08.129.187.239.315.322 0 0 .492.383 1.604.315.496-.032.99-.096 1.478-.193v-2.46a11.206 11.206 0 00-1.487-.118c-1.115-.022-1.59.385-1.587.385z" fill="#000"/><path d="M137.314 17.202a20.338 20.338 0 00-8.234 1.73c-2.895-5.1-8.332-8.539-14.565-8.539a16.707 16.707 0 00-6.513 1.326 16.55 16.55 0 00-5.459 3.754 18.27 18.27 0 00-6.447-5.249 18.494 18.494 0 00-8.134-1.874c-10.126 0-18.337 8.104-18.337 18.098a17.844 17.844 0 001.508 7.198 15.85 15.85 0 00-5.78 5.78 15.618 15.618 0 00-2.098 7.858c0 8.69 7.054 15.736 15.758 15.736 1.088 0 2.174-.111 3.24-.333 1.2 3.22 3.37 6 6.218 7.965a17.123 17.123 0 009.71 3.02c3.334 0 6.594-.97 9.373-2.79a16.833 16.833 0 006.257-7.439 14.944 14.944 0 006.509 1.481c2.647 0 5.245-.698 7.528-2.022a14.785 14.785 0 005.458-5.509c1.321.262 2.664.395 4.011.395 11.24 0 20.354-9.086 20.354-20.294 0-11.207-9.117-20.292-20.357-20.292zm-53.843 23.55c0 1.639-1.2 2.656-3.14 2.656-.95 0-1.86-.146-2.823-.65a5.53 5.53 0 01-.539-.323c-.019-.026-.1-.057-.04-.211l.381-1.047a.152.152 0 01.102-.118.157.157 0 01.154.03c.105.064.183.12.319.2.744.47 1.611.718 2.495.712.84 0 1.364-.441 1.364-1.034v-.032c0-.648-.803-.892-1.736-1.175l-.206-.062c-1.279-.362-2.64-.881-2.64-2.479v-.032c0-1.516 1.239-2.575 3.012-2.575h.192a5.543 5.543 0 012.775.736.18.18 0 01.095.216c-.035.092-.36.949-.393 1.047-.069.18-.257.06-.257.06a5.645 5.645 0 00-2.461-.622c-.75 0-1.235.394-1.235.928v.032c0 .625.828.892 1.79 1.2l.165.053c1.273.397 2.631.948 2.631 2.464l-.005.026zm7.929 2.134s-.202.055-.383.095-.84.175-1.379.266c-.549.09-1.104.136-1.661.136a6.615 6.615 0 01-1.45-.146 3.04 3.04 0 01-1.114-.474 2.224 2.224 0 01-.713-.845 2.781 2.781 0 01-.252-1.236 2.57 2.57 0 01.293-1.245c.191-.354.463-.66.794-.893.346-.24.733-.418 1.142-.523.44-.115.894-.173 1.349-.17.343 0 .631.006.853.023 0 0 .433.039.901.105v-.24c0-.72-.151-1.06-.449-1.288-.297-.228-.761-.35-1.353-.35 0 0-1.332-.017-2.384.55a.713.713 0 01-.09.044.141.141 0 01-.153-.04.138.138 0 01-.027-.048l-.388-1.028a.17.17 0 01.05-.216c.491-.38 1.68-.61 1.68-.61a9.147 9.147 0 011.467-.133c1.094 0 1.94.251 2.52.748.579.497.868 1.305.868 2.389v4.945a.173.173 0 01-.121.181v.003zm3.674.156a.156.156 0 01-.095.151.161.161 0 01-.062.014h-1.45a.162.162 0 01-.115-.05.157.157 0 01-.043-.115V31.499a.154.154 0 01.095-.15.158.158 0 01.062-.013h1.45a.158.158 0 01.148.101c.008.02.01.04.01.062v11.543zm9.062-3.714a.157.157 0 01-.052.1.163.163 0 01-.107.04h-5.472c.033.821.233 1.404.636 1.799.403.394 1.025.634 1.873.636 1.299 0 1.854-.256 2.246-.4a.163.163 0 01.123.005.159.159 0 01.083.09l.36.99c.07.167.014.224-.047.258-.342.189-1.175.536-2.76.54a5.561 5.561 0 01-1.987-.316 3.652 3.652 0 01-1.376-.901 3.581 3.581 0 01-.792-1.376 5.708 5.708 0 01-.248-1.726 6.006 6.006 0 01.24-1.726c.147-.513.4-.99.74-1.404a3.594 3.594 0 011.26-.948 4.347 4.347 0 011.808-.347 4.023 4.023 0 011.567.315c.398.186.752.453 1.039.782.323.367.562.8.7 1.267.213.754.269 1.542.166 2.318v.004zm4.547 4.084c-.951 0-1.86-.146-2.824-.651a5.669 5.669 0 01-.538-.323c-.02-.026-.1-.057-.04-.21l.383-1.048a.151.151 0 01.039-.067.161.161 0 01.143-.049.164.164 0 01.072.03c.102.065.183.118.319.199.745.47 1.611.717 2.495.711.84 0 1.365-.441 1.365-1.034v-.032c0-.647-.805-.892-1.737-1.174l-.205-.063c-1.278-.361-2.64-.88-2.64-2.478v-.032c0-1.517 1.237-2.576 3.01-2.576h.194a5.545 5.545 0 012.775.737.175.175 0 01.093.216c-.034.092-.359.948-.393 1.047-.068.18-.257.06-.257.06a5.639 5.639 0 00-2.46-.623c-.751 0-1.235.394-1.235.929v.032c0 .625.829.892 1.789 1.2l.166.052c1.272.397 2.63.949 2.63 2.464v.031c-.004 1.63-1.207 2.648-3.144 2.648v.004zm9.559-7.311a.184.184 0 01-.184.158h-1.799l-1.233 6.894a10.292 10.292 0 01-.48 1.817 3.578 3.578 0 01-.71 1.21c-.274.311-.622.55-1.011.697a4.033 4.033 0 01-1.344.206 3.342 3.342 0 01-.802-.076 4.308 4.308 0 01-.499-.143.176.176 0 01-.054-.036.166.166 0 01-.035-.054.152.152 0 01-.011-.063.169.169 0 01.015-.063c.038-.108.36-.984.405-1.1a.149.149 0 01.139-.097c.021 0 .041.004.059.011.095.042.194.074.295.094.145.029.292.044.44.047a2.08 2.08 0 00.643-.09 1.02 1.02 0 00.501-.383 2.69 2.69 0 00.382-.77c.145-.434.255-.88.327-1.332l1.228-6.77h-1.21c-.145 0-.193-.067-.177-.174l.204-1.124a.185.185 0 01.061-.113.187.187 0 01.122-.044h1.242l.066-.367c.186-1.085.557-1.91 1.1-2.452.544-.542 1.329-.823 2.317-.823a4.231 4.231 0 011.286.184.153.153 0 01.092.073.145.145 0 01.008.116l-.418 1.135c-.036.086-.059.138-.24.083-.045-.012-.112-.032-.281-.067a2.359 2.359 0 00-.45-.044 1.924 1.924 0 00-.587.083 1.14 1.14 0 00-.457.282 1.55 1.55 0 00-.385.578 7.19 7.19 0 00-.288 1.218h1.749c.145 0 .192.067.178.175l-.204 1.124zm8.01 4.633a3.84 3.84 0 01-.735 1.388 3.48 3.48 0 01-1.242.926 4.214 4.214 0 01-1.732.334 4.205 4.205 0 01-1.732-.334 3.463 3.463 0 01-1.242-.926 3.84 3.84 0 01-.736-1.388 5.976 5.976 0 01-.24-1.717c-.004-.58.077-1.16.24-1.717a3.8 3.8 0 01.736-1.386 3.524 3.524 0 011.239-.935 4.133 4.133 0 011.735-.344 4.117 4.117 0 011.732.344c.479.216.903.535 1.242.934.339.407.589.88.735 1.387.163.558.244 1.136.24 1.717a5.953 5.953 0 01-.24 1.714v.003zm6.764-5.65c-.05.147-.317.889-.411 1.136-.036.092-.094.157-.201.147a3.023 3.023 0 00-.6-.075 2.67 2.67 0 00-.733.103 1.647 1.647 0 00-.677.402 1.993 1.993 0 00-.48.795c-.12.339-.182.878-.182 1.423v4.032a.168.168 0 01-.012.062.164.164 0 01-.153.101h-1.44a.168.168 0 01-.154-.1.169.169 0 01-.012-.063v-8.064a.146.146 0 01.009-.062.16.16 0 01.086-.09.158.158 0 01.062-.012h1.411a.154.154 0 01.146.102c.008.02.011.04.01.062v.66c.25-.295.567-.527.925-.676.341-.151.72-.265 1.411-.225.31.023.617.076.917.155a.147.147 0 01.078.183v.004zm6.839 7.89a6.677 6.677 0 01-2.289.403c-1.402 0-2.477-.398-3.192-1.186-.715-.787-1.08-1.854-1.08-3.179a5.406 5.406 0 01.263-1.72c.164-.511.431-.984.786-1.389.36-.4.805-.718 1.303-.93a4.45 4.45 0 011.8-.344 8.35 8.35 0 011.213.08c.367.058.728.149 1.079.27a.146.146 0 01.11.129.132.132 0 01-.008.059c-.152.426-.255.702-.398 1.092-.06.165-.188.109-.188.109a5.51 5.51 0 00-1.708-.237c-.799 0-1.4.264-1.793.78-.394.516-.618 1.2-.621 2.104 0 .993.249 1.729.694 2.184.445.455 1.068.684 1.849.684.296.002.592-.019.885-.063a3.71 3.71 0 00.752-.21.157.157 0 01.126.001.154.154 0 01.081.094l.397 1.083a.143.143 0 01.006.102.143.143 0 01-.062.08l-.005.004zm8.102-3.646a.157.157 0 01-.052.1.161.161 0 01-.107.04h-5.471c.033.821.232 1.404.637 1.799.404.394 1.022.634 1.871.636 1.299 0 1.854-.256 2.247-.4a.155.155 0 01.122.005.159.159 0 01.083.09l.36.99c.07.167.013.224-.048.258-.342.189-1.175.536-2.76.54a5.56 5.56 0 01-1.987-.316 3.626 3.626 0 01-1.376-.901 3.566 3.566 0 01-.793-1.376 5.773 5.773 0 01-.249-1.726 6.034 6.034 0 01.24-1.726 3.9 3.9 0 01.742-1.404 3.568 3.568 0 011.26-.948 4.345 4.345 0 011.807-.347 4.016 4.016 0 011.567.315c.398.187.752.453 1.04.782.323.367.561.8.698 1.267.216.753.275 1.542.174 2.318l-.005.004z" fill="#000"/><path d="M122.544 36.1c-.72 0-1.231.245-1.568.75-.337.505-.51 1.24-.51 2.164 0 .925.171 1.66.511 2.173.339.512.848.759 1.567.759s1.232-.25 1.573-.76c.341-.51.519-1.247.519-2.172s-.175-1.66-.519-2.164c-.344-.504-.855-.75-1.573-.75zm-22.007-.036c-.72 0-1.228.28-1.565.786a3.151 3.151 0 00-.442 1.275h3.904c-.04-.498-.138-.943-.36-1.277-.344-.504-.818-.784-1.537-.784zm43.826 0c-.72 0-1.23.28-1.56.786-.239.389-.39.824-.443 1.275h3.903c-.039-.498-.138-.943-.36-1.277-.349-.504-.822-.784-1.54-.784z" fill="#000"/></svg>